<svg width="184" height="56" viewBox="0 0 184 56" fill="none" xmlns="http://www.w3.org/2000/svg">
<path d="M68 19.0357H70.9286L71.2857 21.5357H71.5357C72.1309 20.5833 72.9286 19.8571 73.9286 19.3571C74.9524 18.8571 76.0833 18.6071 77.3214 18.6071C79.7024 18.6071 81.5357 19.4166 82.8214 21.0357C84.1071 22.6309 84.75 25.0952 84.75 28.4285C84.75 31.7143 84.1071 34.1785 82.8214 35.8214C81.5357 37.4404 79.7857 38.25 77.5714 38.25C74.9762 38.25 73.0833 37.3928 71.8929 35.6785H71.6786V44H68V19.0357ZM76.2857 35.1428C77.9762 35.1428 79.1786 34.6428 79.8929 33.6428C80.6071 32.6428 80.9643 30.9762 80.9643 28.6428V28.3214C80.9643 25.9405 80.6071 24.25 79.8929 23.25C79.1786 22.2262 77.9762 21.7143 76.2857 21.7143C74.6905 21.7143 73.5238 22.2738 72.7857 23.3928C72.0476 24.5119 71.6786 26.1547 71.6786 28.3214V28.6071C71.6786 30.75 72.0476 32.3809 72.7857 33.5C73.5238 34.5952 74.6905 35.1428 76.2857 35.1428Z" fill="#212121"/>
<path d="M96.3658 38.25C93.342 38.25 91.092 37.4523 89.6158 35.8571C88.1396 34.2619 87.4015 31.7857 87.4015 28.4285C87.4015 25.0714 88.1396 22.5952 89.6158 21C91.092 19.4047 93.342 18.6071 96.3658 18.6071C99.1039 18.6071 101.151 19.3571 102.509 20.8571C103.866 22.3333 104.544 24.6905 104.544 27.9285V29.3571H91.1872C91.2824 31.3809 91.7348 32.8809 92.5443 33.8571C93.3777 34.8095 94.6634 35.2857 96.4015 35.2857C97.7586 35.2857 98.8539 34.9643 99.6872 34.3214C100.521 33.6785 100.937 32.6904 100.937 31.3571H104.544C104.544 33.5952 103.782 35.3095 102.259 36.5C100.759 37.6666 98.7943 38.25 96.3658 38.25ZM100.723 26.5714C100.723 23.2381 99.2705 21.5714 96.3658 21.5714C94.7467 21.5714 93.5324 21.9762 92.7229 22.7857C91.9134 23.5714 91.4253 24.8333 91.2586 26.5714H100.723Z" fill="#212121"/>
<path d="M116.211 38.25C113.187 38.25 110.937 37.4523 109.461 35.8571C107.985 34.2619 107.247 31.7857 107.247 28.4285C107.247 25.0714 107.985 22.5952 109.461 21C110.937 19.4047 113.187 18.6071 116.211 18.6071C118.949 18.6071 120.997 19.3571 122.354 20.8571C123.711 22.3333 124.389 24.6905 124.389 27.9285V29.3571H111.032C111.128 31.3809 111.58 32.8809 112.389 33.8571C113.223 34.8095 114.509 35.2857 116.247 35.2857C117.604 35.2857 118.699 34.9643 119.532 34.3214C120.366 33.6785 120.782 32.6904 120.782 31.3571H124.389C124.389 33.5952 123.628 35.3095 122.104 36.5C120.604 37.6666 118.639 38.25 116.211 38.25ZM120.568 26.5714C120.568 23.2381 119.116 21.5714 116.211 21.5714C114.592 21.5714 113.378 21.9762 112.568 22.7857C111.759 23.5714 111.27 24.8333 111.104 26.5714H120.568Z" fill="#212121"/>
<path d="M128.163 19.0357H131.127L131.485 21.9285H131.699C132.556 19.7143 133.997 18.6071 136.02 18.6071C136.687 18.6071 137.27 18.7024 137.77 18.8928V22.3928H136.449C135.044 22.3928 133.925 22.7976 133.092 23.6071C132.258 24.4166 131.842 25.6547 131.842 27.3214V37.8214H128.163V19.0357Z" fill="#212121"/>
<path d="M140.649 12H144.328V37.8214H140.649V12Z" fill="#212121"/>
<path d="M149.194 12H152.837V15.75H149.194V12ZM149.194 19.0357H152.873V37.8214H149.194V19.0357Z" fill="#212121"/>
<path d="M164.489 38.25C161.918 38.25 159.953 37.7143 158.596 36.6428C157.263 35.5714 156.596 34.2262 156.596 32.6071C156.596 32.3452 156.596 32.1785 156.596 32.1071C156.62 32.0119 156.632 31.9524 156.632 31.9285H160.239V32.25C160.239 33.2738 160.656 34.0476 161.489 34.5714C162.322 35.0714 163.382 35.3214 164.668 35.3214C165.81 35.3214 166.763 35.1071 167.525 34.6785C168.31 34.25 168.703 33.6428 168.703 32.8571C168.703 32.2381 168.489 31.7381 168.06 31.3571C167.632 30.9524 167.108 30.6428 166.489 30.4285C165.87 30.1904 164.977 29.9166 163.81 29.6071C162.382 29.25 161.215 28.8928 160.31 28.5357C159.406 28.1785 158.632 27.6428 157.989 26.9285C157.37 26.2143 157.06 25.2619 157.06 24.0714C157.06 22.3571 157.763 21.0238 159.168 20.0714C160.572 19.0952 162.441 18.6071 164.775 18.6071C166.227 18.6071 167.489 18.8333 168.56 19.2857C169.656 19.7143 170.489 20.3214 171.06 21.1071C171.656 21.8928 171.953 22.7738 171.953 23.75L171.918 24.4643H168.31V24.2143C168.31 23.4285 167.989 22.7976 167.346 22.3214C166.727 21.8214 165.763 21.5714 164.453 21.5714C163.191 21.5714 162.263 21.7976 161.668 22.25C161.096 22.6785 160.81 23.1905 160.81 23.7857C160.81 24.5238 161.168 25.0714 161.882 25.4285C162.596 25.7857 163.727 26.1428 165.275 26.5C166.775 26.8571 168.001 27.2262 168.953 27.6071C169.906 27.9643 170.727 28.5357 171.418 29.3214C172.108 30.0833 172.453 31.1071 172.453 32.3928C172.453 34.3928 171.727 35.869 170.275 36.8214C168.846 37.7738 166.918 38.25 164.489 38.25Z" fill="#212121"/>
<path d="M180.689 38.2143C179.261 38.2143 178.225 37.8095 177.582 37C176.939 36.1666 176.618 35.1428 176.618 33.9285V22.0714H174.332V19.0357H176.653L177.368 13.7857H180.296V19.0357H183.475V22.0714H180.296V33.5714C180.296 34.6666 180.808 35.2143 181.832 35.2143H183.475V37.7143C183.165 37.8571 182.737 37.9762 182.189 38.0714C181.665 38.1666 181.165 38.2143 180.689 38.2143Z" fill="#212121"/>
<mask id="mask0" mask-type="alpha" maskUnits="userSpaceOnUse" x="0" y="0" width="56" height="56">
<path d="M28 0C6.22222 0 0 6.22222 0 28C0 49.7778 6.23778 56 28 56C49.7622 56 56 49.7778 56 28C56 6.22222 49.7622 0 28 0Z" fill="white"/>
</mask>
<g mask="url(#mask0)">
<path d="M1 28C1 17.132 2.57153 10.5094 6.54044 6.54044C10.5094 2.57153 17.132 1 28 1C38.86 1 45.4829 2.57144 49.4539 6.5406C53.4247 10.5096 55 17.1325 55 28C55 38.8675 53.4247 45.4904 49.4539 49.4594C45.4829 53.4286 38.86 55 28 55C17.14 55 10.5171 53.4286 6.54611 49.4594C2.57526 45.4904 1 38.8675 1 28Z" fill="url(#paint0_linear)" stroke="#219653" stroke-width="2"/>
<g filter="url(#filter0_d)">
<path d="M17 34.4H26.6C26.6 39.702 22.3019 44 17 44V34.4Z" fill="white"/>
</g>
<g filter="url(#filter1_d)">
<path d="M17 12H28.2C34.3856 12 39.4 17.0144 39.4 23.2C39.4 29.3856 34.3856 34.4 28.2 34.4H17V12Z" fill="white"/>
</g>
<g filter="url(#filter2_i)">
<path d="M25 20H28.2C29.9673 20 31.4 21.4327 31.4 23.2C31.4 24.9673 29.9673 26.4 28.2 26.4H25V20Z" fill="#27AE60"/>
</g>
</g>
<defs>
<filter id="filter0_d" x="15" y="34.4" width="13.6" height="13.6" filterUnits="userSpaceOnUse" color-interpolation-filters="sRGB">
<feFlood flood-opacity="0" result="BackgroundImageFix"/>
<feColorMatrix in="SourceAlpha" type="matrix" values="0 0 0 0 0 0 0 0 0 0 0 0 0 0 0 0 0 0 127 0"/>
<feOffset dy="2"/>
<feGaussianBlur stdDeviation="1"/>
<feColorMatrix type="matrix" values="0 0 0 0 0 0 0 0 0 0 0 0 0 0 0 0 0 0 0.2 0"/>
<feBlend mode="normal" in2="BackgroundImageFix" result="effect1_dropShadow"/>
<feBlend mode="normal" in="SourceGraphic" in2="effect1_dropShadow" result="shape"/>
</filter>
<filter id="filter1_d" x="15" y="12" width="26.4" height="26.4" filterUnits="userSpaceOnUse" color-interpolation-filters="sRGB">
<feFlood flood-opacity="0" result="BackgroundImageFix"/>
<feColorMatrix in="SourceAlpha" type="matrix" values="0 0 0 0 0 0 0 0 0 0 0 0 0 0 0 0 0 0 127 0"/>
<feOffset dy="2"/>
<feGaussianBlur stdDeviation="1"/>
<feColorMatrix type="matrix" values="0 0 0 0 0 0 0 0 0 0 0 0 0 0 0 0 0 0 0.2 0"/>
<feBlend mode="normal" in2="BackgroundImageFix" result="effect1_dropShadow"/>
<feBlend mode="normal" in="SourceGraphic" in2="effect1_dropShadow" result="shape"/>
</filter>
<filter id="filter2_i" x="25" y="20" width="6.4" height="8.4" filterUnits="userSpaceOnUse" color-interpolation-filters="sRGB">
<feFlood flood-opacity="0" result="BackgroundImageFix"/>
<feBlend mode="normal" in="SourceGraphic" in2="BackgroundImageFix" result="shape"/>
<feColorMatrix in="SourceAlpha" type="matrix" values="0 0 0 0 0 0 0 0 0 0 0 0 0 0 0 0 0 0 127 0" result="hardAlpha"/>
<feOffset dy="2"/>
<feGaussianBlur stdDeviation="1"/>
<feComposite in2="hardAlpha" operator="arithmetic" k2="-1" k3="1"/>
<feColorMatrix type="matrix" values="0 0 0 0 0 0 0 0 0 0 0 0 0 0 0 0 0 0 0.25 0"/>
<feBlend mode="normal" in2="shape" result="effect1_innerShadow"/>
</filter>
<linearGradient id="paint0_linear" x1="28" y1="0" x2="28" y2="56" gradientUnits="userSpaceOnUse">
<stop stop-color="#27AE60"/>
<stop offset="1" stop-color="#1E874B"/>
</linearGradient>
</defs>
</svg>
